<svg width="113" height="34" viewBox="0 0 113 34" fill="none" xmlns="http://www.w3.org/2000/svg">
  <path fill-rule="evenodd" clip-rule="evenodd" d="M0.316035 24.8543C0.316035 30.1868 5.36601 32.4835 9.95181 32.4835C14.982 32.4835 16.7301 32.4835 20.7266 32.4835C26.4877 32.4835 31.0044 27.5206 31.0044 22.5821C31.0044 17.2221 26.4317 12.9891 20.7003 12.8456H10.2514C7.44658 12.421 7.61447 8.66753 10.2514 8.31936C12.4077 8.31936 29.8719 8.31936 29.8719 8.31936C29.8719 4.14438 26.4877 0.852051 21.7472 0.852051C17.2865 0.852051 10.2514 0.852051 10.2514 0.852051C4.3389 0.852051 0.260071 5.58898 0.260071 10.6496C0.260071 15.9119 4.67469 20.3281 10.2514 20.3281H20.7299C23.3833 20.8107 23.7158 24.3046 20.7299 24.8574C17.9251 24.8543 0.316035 24.8543 0.316035 24.8543Z" fill="#0059ff"/>
  <path fill-rule="evenodd" clip-rule="evenodd" d="M34.0297 0.849121H42.0821V32.4836H34.0297V0.849121Z" fill="#0059ff"/>
  <path fill-rule="evenodd" clip-rule="evenodd" d="M78.7059 24.4847C75.7464 29.6859 69.88 33.2256 63.1478 33.2256C53.4297 33.2256 45.5518 25.8469 45.5518 16.7456C45.5518 7.64436 53.4297 0.265625 63.1478 0.265625C69.8141 0.265625 75.6114 3.7351 78.5973 8.85379L71.3877 12.4637C69.7746 9.70588 66.6571 7.86731 63.1478 7.86731C58.0287 7.86731 53.7457 11.7735 53.7457 16.7456C53.7457 21.7177 58.0287 25.6239 63.1478 25.6239C66.7295 25.6239 69.9228 23.712 71.5029 20.8564L78.7059 24.4847Z" fill="#0059ff"/>
  <path fill-rule="evenodd" clip-rule="evenodd" d="M81.7412 0.849121V32.4836H89.8857V20.2275H92.7464L101.316 32.4836H111.333L99.9626 16.8679L111.501 0.849121H101.487L93.0197 13.5359H89.8857V0.849121H81.7412Z" fill="#0059ff"/>
</svg>
